HIERARCHY
ROOT hip
{
  OFFSET 0 0 0
  CHANNELS 6 Xposition Yposition Zposition Zrotation Yrotation Xrotation
  JOINT abdomen
  {
    OFFSET 0 20.6881 -0.73152
    CHANNELS 3 Zrotation Xrotation Yrotation
    JOINT chest
    {
      OFFSET 0 11.7043 -0.48768
      CHANNELS 3 Zrotation Xrotation Yrotation
      JOINT neck
      {
        OFFSET 0 22.1894 -2.19456
        CHANNELS 3 Zrotation Xrotation Yrotation
        JOINT head
        {
          OFFSET -0.24384 7.07133 1.2192
          CHANNELS 3 Zrotation Xrotation Yrotation
          JOINT leftEye
          {
            OFFSET 4.14528 8.04674 8.04672
            CHANNELS 3 Zrotation Xrotation Yrotation
            End Site
            {
              OFFSET 1 0 0
            }
          }
          JOINT rightEye
          {
            OFFSET -3.6576 8.04674 8.04672
            CHANNELS 3 Zrotation Xrotation Yrotation
            End Site
            {
              OFFSET 1 0 0
            }
          }
        }
      }
      JOINT rCollar
      {
        OFFSET -2.68224 19.2634 -4.8768
        CHANNELS 3 Zrotation Xrotation Yrotation
        JOINT rShldr
        {
          OFFSET -8.77824 -1.95073 1.46304
          CHANNELS 3 Zrotation Xrotation Yrotation
          JOINT rForeArm
          {
            OFFSET -28.1742 -1.7115 0.48768
            CHANNELS 3 Zrotation Xrotation Yrotation
            JOINT rHand
            {
              OFFSET -22.5879 0.773209 7.07136
              CHANNELS 3 Zrotation Xrotation Yrotation
              JOINT rThumb1
              {
                OFFSET -1.2192 -0.487915 3.41376
                CHANNELS 3 Zrotation Xrotation Yrotation
                JOINT rThumb2
                {
                  OFFSET -3.37035 -0.52449 3.41376
                  CHANNELS 3 Zrotation Xrotation Yrotation
                  End Site
                  {
                    OFFSET -1.78271 -1.18214 1.43049
                  }
                }
              }
              JOINT rIndex1
              {
                OFFSET -7.75947 0.938293 5.60832
                CHANNELS 3 Zrotation Xrotation Yrotation
                JOINT rIndex2
                {
                  OFFSET -2.54057 -0.884171 1.56538
                  CHANNELS 3 Zrotation Xrotation Yrotation
                  End Site
                  {
                    OFFSET -1.62519 -0.234802 1.16502
                  }
                }
              }
              JOINT rMid1
              {
                OFFSET -8.24714 1.18213 3.41376
                CHANNELS 3 Zrotation Xrotation Yrotation
                JOINT rMid2
                {
                  OFFSET -3.10165 -0.590103 1.0647
                  CHANNELS 3 Zrotation Xrotation Yrotation
                  End Site
                  {
                    OFFSET -2.48547 -0.328903 0.83742
                  }
                }
              }
              JOINT rRing1
              {
                OFFSET -8.82822 0.546677 1.51678
                CHANNELS 3 Zrotation Xrotation Yrotation
                JOINT rRing2
                {
                  OFFSET -2.60934 -0.819778 -0.0198488
                  CHANNELS 3 Zrotation Xrotation Yrotation
                  End Site
                  {
                    OFFSET -2.33842 -0.294052 0.168128
                  }
                }
              }
              JOINT rPinky1
              {
                OFFSET -8.27202 -0.0477905 -0.4584
                CHANNELS 3 Zrotation Xrotation Yrotation
                JOINT rPinky2
                {
                  OFFSET -1.82734 -0.647385 -0.700984
                  CHANNELS 3 Zrotation Xrotation Yrotation
                  End Site
                  {
                    OFFSET -1.69225 -0.51767 -0.607171
                  }
                }
              }
            }
          }
        }
      }
      JOINT lCollar
      {
        OFFSET 2.68224 19.2634 -4.8768
        CHANNELS 3 Zrotation Xrotation Yrotation
        JOINT lShldr
        {
          OFFSET 8.77824 -1.95073 1.46304
          CHANNELS 3 Zrotation Xrotation Yrotation
          JOINT lForeArm
          {
            OFFSET 28.1742 -1.7115 0.48768
            CHANNELS 3 Zrotation Xrotation Yrotation
            JOINT lHand
            {
              OFFSET 22.5879 0.773209 7.07136
              CHANNELS 3 Zrotation Xrotation Yrotation
              JOINT lThumb1
              {
                OFFSET 1.2192 -0.487915 3.41376
                CHANNELS 3 Zrotation Xrotation Yrotation
                JOINT lThumb2
                {
                  OFFSET 3.37035 -0.52449 3.41376
                  CHANNELS 3 Zrotation Xrotation Yrotation
                  End Site
                  {
                    OFFSET 1.78271 -1.18214 1.43049
                  }
                }
              }
              JOINT lIndex1
              {
                OFFSET 7.75947 0.938293 5.60832
                CHANNELS 3 Zrotation Xrotation Yrotation
                JOINT lIndex2
                {
                  OFFSET 2.54057 -0.884171 1.56538
                  CHANNELS 3 Zrotation Xrotation Yrotation
                  End Site
                  {
                    OFFSET 1.62519 -0.234802 1.16502
                  }
                }
              }
              JOINT lMid1
              {
                OFFSET 8.24714 1.18213 3.41376
                CHANNELS 3 Zrotation Xrotation Yrotation
                JOINT lMid2
                {
                  OFFSET 3.10165 -0.590103 1.0647
                  CHANNELS 3 Zrotation Xrotation Yrotation
                  End Site
                  {
                    OFFSET 2.48547 -0.328903 0.83742
                  }
                }
              }
              JOINT lRing1
              {
                OFFSET 8.82822 0.546677 1.51678
                CHANNELS 3 Zrotation Xrotation Yrotation
                JOINT lRing2
                {
                  OFFSET 2.60934 -0.819778 -0.0198488
                  CHANNELS 3 Zrotation Xrotation Yrotation
                  End Site
                  {
                    OFFSET 2.33842 -0.294052 0.168128
                  }
                }
              }
              JOINT lPinky1
              {
                OFFSET 8.27202 -0.0477905 -0.4584
                CHANNELS 3 Zrotation Xrotation Yrotation
                JOINT lPinky2
                {
                  OFFSET 1.82734 -0.647385 -0.700984
                  CHANNELS 3 Zrotation Xrotation Yrotation
                  End Site
                  {
                    OFFSET 1.69225 -0.51767 -0.607171
                  }
                }
              }
            }
          }
        }
      }
    }
  }
  JOINT rButtock
  {
    OFFSET -8.77824 4.35084 1.2192
    CHANNELS 3 Zrotation Xrotation Yrotation
    JOINT rThigh
    {
      OFFSET 0 -1.70687 -2.19456
      CHANNELS 3 Zrotation Xrotation Yrotation
      JOINT rShin
      {
        OFFSET 0 -36.8199 0.73152
        CHANNELS 3 Zrotation Xrotation Yrotation
        JOINT rFoot
        {
          OFFSET 0.73152 -45.1104 -5.12064
          CHANNELS 3 Zrotation Xrotation Yrotation
          End Site
          {
            OFFSET -1.1221 -3.69964 12.103
          }
        }
      }
    }
  }
  JOINT lButtock
  {
    OFFSET 8.77824 4.35084 1.2192
    CHANNELS 3 Zrotation Xrotation Yrotation
    JOINT lThigh
    {
      OFFSET 0 -1.70687 -2.19456
      CHANNELS 3 Zrotation Xrotation Yrotation
      JOINT lShin
      {
        OFFSET 0 -36.8199 0.73152
        CHANNELS 3 Zrotation Xrotation Yrotation
        JOINT lFoot
        {
          OFFSET -0.73152 -45.1104 -5.12064
          CHANNELS 3 Zrotation Xrotation Yrotation
          End Site
          {
            OFFSET 1.1221 -3.69964 12.103
          }
        }
      }
    }
  }
}
MOTION
Frames:	4
Frame Time:	0.00833333
49.9168 85.5269 255.397 0.0 0.0 0.0 2.34101 -0.00222412 0.0637213 0.646595 0.00594994 0.111938 2.70855e-14 0.0 1.06847e-15 8.23341e-14 3.18055e-15 3.3048e-15 -0.0 0.0 0.0 -0.0 0.0 0.0 1.40625e-14 -1.09487e-16 6.4605e-16 2.92306e-13 -1.95679e-15 1.35174e-14 4.97056e-12 -1.5698e-12 1.52667e-13 5.69433e-11 1.09627e-12 2.34725e-12 1.34314e-10 -1.03353e-12 5.4133e-12 2.31951e-10 -1.78111e-12 9.34765e-12 1.34317e-10 -1.0305e-12 5.39422e-12 7.73091 5.47488 0.417314 1.34314e-10 -1.03358e-12 5.41648e-12 2.90554 0.965183 0.102902 1.34325e-10 -1.03308e-12 5.41489e-12 10.2786 0.731801 0.0259123 1.34308e-10 -1.0309e-12 5.42285e-12 2.22167 -0.733487 -0.20892 1.40664e-14 -1.01334e-16 4.47265e-16 2.86321e-13 -2.48481e-15 1.15295e-14 4.9725e-12 1.41992e-12 1.7175e-13 5.69419e-11 -1.9015e-12 2.34407e-12 1.34313e-10 -1.04268e-12 5.43557e-12 2.31955e-10 -1.80019e-12 9.38582e-12 1.34307e-10 -1.04163e-12 5.44511e-12 -7.73091 5.47488 -0.417314 1.34312e-10 -1.04253e-12 5.43557e-12 -2.90554 0.965183 -0.102902 1.34305e-10 -1.04243e-12 5.43557e-12 -10.2786 0.731801 -0.0259123 1.3432e-10 -1.03885e-12 5.42603e-12 -2.22167 -0.733487 0.20892 -2.03217e-16 0.0 -3.88251e-19 2.21557 -8.02972 -0.231365 0.00607119 8.97367 0.152067 -0.477774 -0.951449 0.0348731 2.03217e-16 0.0 3.88251e-19 1.35215 -1.92788 -0.00535933 0.00846595 -2.07867 0.0694545 0.423776 3.99898 -0.127277
49.4594 84.2667 243.644 -179.939 -10.5548 -179.562 2.7658 1.20506 1.56928 -0.202725 -2.1491 0.511895 2.77809 3.96079 4.68101 -4.70863 -6.9459 8.31249 -0.0 0.0 0.0 -0.0 0.0 0.0 1.34821e-14 4.98133e-16 6.34209e-14 22.7324 13.1495 -2.8441 -5.3818 -2.73204 8.07118 0.00833799 2.02577 0.28406 1.07754e-10 5.67739e-11 2.02471e-11 1.86307e-10 9.87227e-11 3.45775e-11 1.07756e-10 5.67789e-11 2.02269e-11 7.73091 5.47488 0.417314 1.07754e-10 5.67747e-11 2.02485e-11 2.90554 0.965183 0.102902 1.07763e-10 5.67753e-11 2.02491e-11 10.2786 0.731801 0.0259123 1.07748e-10 5.67776e-11 2.0256e-11 2.22167 -0.733487 -0.20892 1.34995e-14 5.04341e-16 6.32391e-14 -21.6834 11.6675 1.16463 5.35241 -2.71012 -8.03584 -0.0286608 3.75728 -0.523959 -2.66489e-11 -1.39501e-10 -2.38577e-11 -4.63626e-11 -2.40509e-10 -3.99007e-11 -2.66542e-11 -1.39501e-10 -2.38443e-11 -7.73091 5.47488 -0.417314 -2.66491e-11 -1.39503e-10 -2.38577e-11 -2.90554 0.965183 -0.102902 -2.66561e-11 -1.39503e-10 -2.38583e-11 -10.2786 0.731801 -0.0259123 -2.66425e-11 -1.39499e-10 -2.38682e-11 -2.22167 -0.733487 0.20892 -2.03217e-16 0.0 -3.88251e-19 3.51391 -9.0807 3.14915 0.0403914 14.8513 0.302135 -2.04283 -6.72867 -8.25568 2.03217e-16 0.0 3.88251e-19 -0.192852 -4.56499 -6.45921 -0.0257785 5.55508 -0.114901 1.11897 -1.7399 5.09038
49.4357 84.2577 243.674 -180.093 -10.4984 -179.421 3.14375 2.4786 3.16243 -1.0671 -4.42909 0.936492 5.00615 8.06077 9.70424 -7.46927 -13.7964 17.4964 -0.0 0.0 0.0 -0.0 0.0 0.0 1.27547e-14 1.49258e-15 1.27328e-13 48.337 26.9406 -6.39285 -10.2424 -5.43918 16.6612 -0.00473734 4.16534 0.585284 9.22606e-11 1.15456e-10 3.18179e-11 1.59804e-10 2.0093e-10 5.40391e-11 9.22609e-11 1.15464e-10 3.17964e-11 7.73091 5.47488 0.417314 9.22592e-11 1.15458e-10 3.18175e-11 2.90554 0.965183 0.102902 9.22675e-11 1.15459e-10 3.18205e-11 10.2786 0.731801 0.0259123 9.22551e-11 1.15461e-10 3.18264e-11 2.22167 -0.733487 -0.20892 1.27868e-14 1.49678e-15 1.27166e-13 -45.1678 23.9839 2.57152 10.1918 -5.39683 -16.5869 0.0164184 7.73541 -1.08641 -2.02569e-10 -2.88236e-10 -5.08473e-11 -3.50522e-10 -4.96873e-10 -8.50213e-11 -2.02574e-10 -2.88236e-10 -5.08298e-11 -7.73091 5.47488 -0.417314 -2.02569e-10 -2.88239e-10 -5.08475e-11 -2.90554 0.965183 -0.102902 -2.02575e-10 -2.88239e-10 -5.08486e-11 -10.2786 0.731801 -0.0259123 -2.02563e-10 -2.88237e-10 -5.08591e-11 -2.22167 -0.733487 0.20892 -2.03217e-16 0.0 -3.88251e-19 5.02117 -10.1515 6.74336 0.0406614 21.0657 0.473715 -5.52795 -12.4077 -17.323 2.03217e-16 0.0 3.88251e-19 -2.47193 -7.21527 -13.3468 -0.0073653 13.6234 -0.317483 2.991 -7.68412 10.6965
49.4184 84.2594 243.664 -180.186 -10.4511 -179.412 3.42494 3.60942 4.58846 -1.81059 -6.45775 1.3191 6.38049 11.5624 14.3057 -8.00513 -19.0432 26.2924 -0.0 0.0 0.0 -0.0 0.0 0.0 1.23211e-14 1.71337e-15 1.8897e-13 73.0466 39.0016 -10.7161 -13.896 -7.54694 24.4109 -0.0355334 6.0767 0.85646 5.46338e-11 1.72389e-10 4.99146e-11 9.50186e-11 2.9973e-10 8.50373e-11 5.4633e-11 1.72398e-10 4.98922e-11 7.73091 5.47488 0.417314 5.46319e-11 1.72391e-10 4.99125e-11 2.90554 0.965183 0.102902 5.46392e-11 1.72392e-10 4.99174e-11 10.2786 0.731801 0.0259123 5.46285e-11 1.72395e-10 4.99224e-11 2.22167 -0.733487 -0.20892 1.23658e-14 1.71569e-15 1.88823e-13 -66.7374 34.9379 4.17515 13.8352 -7.49201 -24.301 0.123596 11.268 -1.59933 -3.48572e-10 -4.16418e-10 -8.24441e-11 -6.02999e-10 -7.17928e-10 -1.38474e-10 -3.48577e-10 -4.16419e-10 -8.24232e-11 -7.73091 5.47488 -0.417314 -3.48572e-10 -4.16423e-10 -8.24443e-11 -2.90554 0.965183 -0.102902 -3.48578e-10 -4.16423e-10 -8.2446e-11 -10.2786 0.731801 -0.0259123 -3.48567e-10 -4.16421e-10 -8.24567e-11 -2.22167 -0.733487 0.20892 -2.03217e-16 0.0 -3.88251e-19 6.48526 -11.0576 9.97414 0.00553917 26.6056 0.643898 -10.1954 -16.7528 -25.8368 2.03217e-16 0.0 3.88251e-19 -5.0456 -9.36301 -19.5764 0.0606746 20.8218 -0.515573 5.66366 -12.7475 15.9204
